<svg width="32" height="32" viewBox="0 0 32 32" fill="none" xmlns="http://www.w3.org/2000/svg">
<g clip-path="url(#clip0_37_3314)">
<path d="M16 32C24.8366 32 32 24.8366 32 16C32 7.16344 24.8366 0 16 0C7.16344 0 0 7.16344 0 16C0 24.8366 7.16344 32 16 32Z" fill="#0088CC"/>
<path fill-rule="evenodd" clip-rule="evenodd" d="M9.43879 8.00415H22.6636C23.1314 8.00415 23.599 8.07278 24.0876 8.30057C24.6732 8.57358 24.9838 9.0039 25.2014 9.32213C25.2183 9.34689 25.2342 9.3724 25.2488 9.39851C25.5046 9.85392 25.6365 10.3456 25.6365 10.8746C25.6365 11.3771 25.5169 11.9247 25.2488 12.4019C25.2463 12.4065 25.2437 12.4111 25.2411 12.4155L16.8859 26.7679C16.7016 27.0845 16.3625 27.2787 15.9963 27.2773C15.63 27.2761 15.2923 27.0794 15.1103 26.7616L6.90852 12.4399C6.90616 12.436 6.90381 12.4321 6.90145 12.4282C6.71374 12.1189 6.42347 11.6405 6.37269 11.0233C6.32604 10.4556 6.45362 9.88693 6.73884 9.39371C7.02406 8.90049 7.45345 8.50621 7.96991 8.26487C8.52368 8.00617 9.08486 8.00415 9.43879 8.00415ZM14.9747 10.0544H9.43879C9.07509 10.0544 8.93547 10.0768 8.83787 10.1225C8.70288 10.1855 8.58953 10.2891 8.51374 10.4201C8.43795 10.5513 8.40368 10.7032 8.41614 10.8553C8.4233 10.9424 8.45884 11.0421 8.66844 11.3878C8.67282 11.3951 8.67711 11.4024 8.68132 11.4098L14.9747 22.3992V10.0544ZM17.0251 10.0544V22.4534L23.4642 11.3923C23.5369 11.2602 23.5862 11.0695 23.5862 10.8746C23.5862 10.7165 23.5534 10.5792 23.4801 10.4378C23.4033 10.3272 23.3564 10.2687 23.3173 10.2286C23.2837 10.1943 23.2578 10.1759 23.2213 10.1589C23.069 10.0879 22.9132 10.0544 22.6636 10.0544H17.0251Z" fill="#F3FBFE"/>
</g>
<defs>
<clipPath id="clip0_37_3314">
<rect width="32" height="32" fill="white"/>
</clipPath>
</defs>
</svg>
